<svg xmlns="http://www.w3.org/2000/svg" width="500" height="500" viewBox="0 0 500 500"><rect x="0" y="0" width="500" height="500" fill="#d8e4a6"/><g transform="translate(94,77)translate(156,155.5)rotate(0)translate(-156,-155.5) scale(1.56,1.56)" opacity="1"><defs class="defs"/><g>
    <path fill="#508825" d="M29.289,170.71c9.184,9.184,19.879,16.394,31.785,21.43C73.404,197.355,86.5,200,100,200&#10;&#9;&#9;s26.596-2.645,38.926-7.86c11.908-5.036,22.602-12.246,31.785-21.43s16.393-19.877,21.432-31.786&#10;&#9;&#9;C197.355,126.596,200,113.499,200,100s-2.645-26.596-7.857-38.925c-5.039-11.908-12.248-22.602-21.432-31.786&#10;&#9;&#9;c-9.184-9.183-19.877-16.394-31.785-21.43C126.596,2.645,113.5,0,100,0S73.404,2.645,61.074,7.859&#10;&#9;&#9;c-11.906,5.037-22.602,12.247-31.785,21.43c-9.184,9.184-16.395,19.877-21.43,31.786C2.645,73.404,0,86.501,0,100&#10;&#9;&#9;s2.645,26.596,7.859,38.925C12.895,150.833,20.105,161.527,29.289,170.71z M100,3.438c25.793,0,50.043,10.044,68.279,28.282&#10;&#9;&#9;c18.238,18.238,28.281,42.487,28.281,68.279s-10.043,50.041-28.281,68.279c-18.236,18.238-42.486,28.282-68.279,28.282&#10;&#9;&#9;s-50.041-10.044-68.279-28.282S3.438,125.792,3.438,100s10.045-50.041,28.283-68.279S74.207,3.438,100,3.438z" class="color c1"/>
    <path fill="#508825" d="M14.896,100c0,22.732,8.852,44.104,24.926,60.177S77.268,185.104,100,185.104s44.104-8.853,60.178-24.926&#10;&#9;&#9;s24.928-37.445,24.928-60.177s-8.854-44.104-24.928-60.177C144.104,23.749,122.732,14.896,100,14.896s-44.104,8.853-60.178,24.927&#10;&#9;&#9;C23.748,55.896,14.896,77.268,14.896,100z M100,18.334c21.814,0,42.322,8.495,57.746,23.919&#10;&#9;&#9;c15.426,15.425,23.92,35.933,23.92,57.747s-8.494,42.322-23.92,57.747c-15.424,15.425-35.932,23.918-57.746,23.918&#10;&#9;&#9;s-42.322-8.494-57.746-23.918c-15.426-15.425-23.92-35.933-23.92-57.747s8.494-42.322,23.92-57.747&#10;&#9;&#9;C57.678,26.829,78.186,18.334,100,18.334z" class="color c1"/>
    <path fill="#508825" d="M149.371,174.462l1.109,1.671c0.957-0.636,1.912-1.297,2.844-1.969l-1.172-1.627&#10;&#9;&#9;C151.242,173.195,150.305,173.842,149.371,174.462z" class="color c1"/>
    <path fill="#508825" d="M91.604,11.056l-0.186-1.997c-1.145,0.107-2.299,0.237-3.434,0.386l0.262,1.989&#10;&#9;&#9;C89.355,11.287,90.484,11.16,91.604,11.056z" class="color c1"/>
    <path fill="#508825" d="M182.973,133.171l1.861,0.745c0.426-1.063,0.838-2.151,1.225-3.233l-1.891-0.673&#10;&#9;&#9;C183.791,131.067,183.389,132.131,182.973,133.171z" class="color c1"/>
    <path fill="#508825" d="M112.107,9.457c-1.137-0.15-2.293-0.281-3.434-0.389l-0.188,1.997c1.115,0.105,2.246,0.233,3.357,0.38&#10;&#9;&#9;L112.107,9.457z" class="color c1"/>
    <path fill="#508825" d="M105.229,8.808c-1.146-0.064-2.309-0.108-3.455-0.13l-0.037,2.006c1.121,0.021,2.258,0.064,3.379,0.127&#10;&#9;&#9;L105.229,8.808z" class="color c1"/>
    <path fill="#508825" d="M118.92,10.624c-1.123-0.237-2.266-0.455-3.395-0.648l-0.34,1.977c1.105,0.189,2.223,0.402,3.32,0.634&#10;&#9;&#9;L118.92,10.624z" class="color c1"/>
    <path fill="#508825" d="M180.232,139.331l1.799,0.884c0.506-1.027,0.998-2.078,1.463-3.123l-1.834-0.816&#10;&#9;&#9;C181.207,137.298,180.725,138.326,180.232,139.331z" class="color c1"/>
    <path fill="#508825" d="M164.865,161.425l1.457,1.38c0.787-0.832,1.57-1.691,2.328-2.553l-1.508-1.324&#10;&#9;&#9;C166.402,159.771,165.637,160.611,164.865,161.425z" class="color c1"/>
    <path fill="#508825" d="M84.902,11.937L84.566,9.96c-1.131,0.192-2.273,0.409-3.396,0.645l0.412,1.963&#10;&#9;&#9;C82.68,12.337,83.799,12.125,84.902,11.937z" class="color c1"/>
    <path fill="#508825" d="M169.324,156.348l1.557,1.266c0.723-0.887,1.438-1.803,2.129-2.719l-1.602-1.207&#10;&#9;&#9;C170.73,154.585,170.031,155.48,169.324,156.348z" class="color c1"/>
    <path fill="#508825" d="M154.861,170.509l1.232,1.582c0.902-0.704,1.807-1.436,2.686-2.176l-1.291-1.535&#10;&#9;&#9;C156.629,169.104,155.744,169.82,154.861,170.509z" class="color c1"/>
    <path fill="#508825" d="M160.035,166.155l1.348,1.484c0.85-0.771,1.695-1.569,2.516-2.372l-1.404-1.433&#10;&#9;&#9;C161.693,164.62,160.865,165.4,160.035,166.155z" class="color c1"/>
    <path fill="#508825" d="M177.031,145.269l1.727,1.018c0.582-0.987,1.154-1.999,1.695-3.005l-1.766-0.952&#10;&#9;&#9;C178.156,143.314,177.6,144.303,177.031,145.269z" class="color c1"/>
    <path fill="#508825" d="M71.797,15.209l-0.633-1.903c-1.094,0.363-2.193,0.752-3.268,1.156l0.705,1.878&#10;&#9;&#9;C69.652,15.945,70.729,15.565,71.797,15.209z" class="color c1"/>
    <path fill="#508825" d="M173.387,150.953l1.646,1.145c0.654-0.939,1.299-1.905,1.918-2.87l-1.688-1.083&#10;&#9;&#9;C174.656,149.089,174.027,150.033,173.387,150.953z" class="color c1"/>
    <path fill="#508825" d="M78.287,13.324l-0.486-1.946c-1.115,0.278-2.236,0.582-3.336,0.901l0.561,1.926&#10;&#9;&#9;C76.1,13.892,77.197,13.596,78.287,13.324z" class="color c1"/>
    <path fill="#508825" d="M98.354,10.682l-0.037-2.006C97.17,8.697,96.01,8.74,94.863,8.803l0.111,2.002&#10;&#9;&#9;C96.096,10.744,97.232,10.702,98.354,10.682z" class="color c1"/>
    <path fill="#508825" d="M187.061,79.888l1.955-0.449c-0.258-1.118-0.539-2.246-0.84-3.353l-1.936,0.523&#10;&#9;&#9;C186.533,77.692,186.809,78.795,187.061,79.888z" class="color c1"/>
    <path fill="#508825" d="M189.082,93.245l2-0.149c-0.086-1.143-0.195-2.301-0.322-3.44l-1.992,0.225&#10;&#9;&#9;C188.893,90.995,188.998,92.126,189.082,93.245z" class="color c1"/>
    <path fill="#508825" d="M188.324,86.528l1.982-0.3c-0.17-1.136-0.367-2.282-0.58-3.407l-1.971,0.375&#10;&#9;&#9;C187.965,84.296,188.156,85.417,188.324,86.528z" class="color c1"/>
    <path fill="#508825" d="M185.295,73.364l1.916-0.598c-0.344-1.099-0.713-2.205-1.096-3.289l-1.893,0.67&#10;&#9;&#9;C184.6,71.207,184.961,72.289,185.295,73.364z" class="color c1"/>
    <path fill="#508825" d="M183.031,66.975l1.863-0.742c-0.424-1.065-0.875-2.14-1.342-3.194l-1.836,0.813&#10;&#9;&#9;C182.174,64.883,182.617,65.934,183.031,66.975z" class="color c1"/>
    <path fill="#508825" d="M180.287,60.782l1.801-0.882c-0.506-1.033-1.037-2.069-1.58-3.081l-1.768,0.95&#10;&#9;&#9;C179.273,58.758,179.793,59.771,180.287,60.782z" class="color c1"/>
    <path fill="#508825" d="M187.02,120.284l1.955,0.454c0.26-1.116,0.502-2.253,0.717-3.381l-1.969-0.379&#10;&#9;&#9;C187.51,118.081,187.273,119.193,187.02,120.284z" class="color c1"/>
    <path fill="#508825" d="M188.297,113.647l1.982,0.304c0.174-1.132,0.33-2.284,0.461-3.425l-1.994-0.229&#10;&#9;&#9;C188.619,111.413,188.467,112.54,188.297,113.647z" class="color c1"/>
    <path fill="#508825" d="M189.068,106.932l2,0.154c0.088-1.144,0.154-2.305,0.199-3.451l-2.004-0.078&#10;&#9;&#9;C189.221,104.678,189.154,105.813,189.068,106.932z" class="color c1"/>
    <path fill="#508825" d="M189.334,100v0.176l2.006,0.005V100c0-1.148-0.021-2.31-0.064-3.455l-2.004,0.075&#10;&#9;&#9;C189.313,97.74,189.334,98.877,189.334,100z" class="color c1"/>
    <path fill="#508825" d="M150.555,23.916c-0.953-0.635-1.932-1.26-2.908-1.858l-1.047,1.71c0.953,0.585,1.912,1.196,2.844,1.818&#10;&#9;&#9;L150.555,23.916z" class="color c1"/>
    <path fill="#508825" d="M125.625,12.304c-1.104-0.321-2.225-0.625-3.338-0.905l-0.488,1.946c1.09,0.272,2.188,0.57,3.264,0.884&#10;&#9;&#9;L125.625,12.304z" class="color c1"/>
    <path fill="#508825" d="M144.672,20.311c-0.998-0.56-2.021-1.109-3.039-1.632l-0.918,1.785c0.998,0.511,1.998,1.049,2.973,1.597&#10;&#9;&#9;L144.672,20.311z" class="color c1"/>
    <path fill="#508825" d="M156.154,27.957c-0.902-0.705-1.832-1.402-2.762-2.073l-1.174,1.626c0.91,0.656,1.818,1.339,2.701,2.028&#10;&#9;&#9;L156.154,27.957z" class="color c1"/>
    <path fill="#508825" d="M132.182,14.491c-1.074-0.404-2.172-0.793-3.258-1.156l-0.635,1.902c1.063,0.355,2.135,0.735,3.184,1.131&#10;&#9;&#9;L132.182,14.491z" class="color c1"/>
    <path fill="#508825" d="M178.811,53.802c-0.58-0.99-1.189-1.983-1.809-2.95l-1.689,1.081c0.605,0.946,1.201,1.917,1.77,2.885&#10;&#9;&#9;L178.811,53.802z" class="color c1"/>
    <path fill="#508825" d="M138.535,17.163c-1.039-0.483-2.1-0.953-3.154-1.396l-0.777,1.849c1.031,0.434,2.068,0.893,3.084,1.366&#10;&#9;&#9;L138.535,17.163z" class="color c1"/>
    <path fill="#508825" d="M161.436,32.408c-0.848-0.77-1.723-1.536-2.6-2.276l-1.293,1.534c0.857,0.723,1.715,1.472,2.543,2.226&#10;&#9;&#9;L161.436,32.408z" class="color c1"/>
    <path fill="#508825" d="M175.084,47.973c-0.654-0.943-1.336-1.886-2.025-2.804l-1.604,1.205c0.674,0.898,1.34,1.821,1.98,2.743&#10;&#9;&#9;L175.084,47.973z" class="color c1"/>
    <path fill="#508825" d="M170.928,42.444c-0.723-0.891-1.475-1.779-2.23-2.642l-1.508,1.322c0.74,0.844,1.475,1.713,2.182,2.584&#10;&#9;&#9;L170.928,42.444z" class="color c1"/>
    <path fill="#508825" d="M166.371,37.247c-0.789-0.833-1.604-1.663-2.424-2.466l-1.404,1.432c0.801,0.786,1.598,1.597,2.369,2.412&#10;&#9;&#9;L166.371,37.247z" class="color c1"/>
    <path fill="#508825" d="M77.625,188.578c1.111,0.28,2.244,0.543,3.367,0.78l0.416-1.963c-1.098-0.232-2.207-0.487-3.293-0.763&#10;&#9;&#9;L77.625,188.578z" class="color c1"/>
    <path fill="#508825" d="M15.803,70.072l-1.889-0.671c-0.385,1.081-0.754,2.184-1.098,3.279l1.916,0.599&#10;&#9;&#9;C15.066,72.208,15.428,71.129,15.803,70.072z" class="color c1"/>
    <path fill="#508825" d="M13.783,76.522l-1.936-0.525c-0.301,1.108-0.584,2.236-0.842,3.353l1.953,0.451&#10;&#9;&#9;C13.211,78.709,13.488,77.606,13.783,76.522z" class="color c1"/>
    <path fill="#508825" d="M70.992,186.636c1.088,0.363,2.197,0.712,3.297,1.034l0.564-1.925c-1.078-0.315-2.162-0.655-3.225-1.011&#10;&#9;&#9;L70.992,186.636z" class="color c1"/>
    <path fill="#508825" d="M12.262,83.108l-1.971-0.377c-0.215,1.125-0.412,2.271-0.584,3.406l1.982,0.302&#10;&#9;&#9;C11.857,85.329,12.051,84.208,12.262,83.108z" class="color c1"/>
    <path fill="#508825" d="M64.535,184.199c1.057,0.444,2.133,0.875,3.199,1.277l0.709-1.876c-1.045-0.394-2.098-0.815-3.129-1.25&#10;&#9;&#9;L64.535,184.199z" class="color c1"/>
    <path fill="#508825" d="M10.666,99.911c0.002-1.124,0.023-2.262,0.066-3.381l-2.004-0.077c-0.045,1.144-0.066,2.307-0.068,3.455&#10;&#9;&#9;L10.666,99.911z" class="color c1"/>
    <path fill="#508825" d="M13.736,123.305l-1.936,0.522c0.297,1.107,0.621,2.224,0.961,3.32l1.916-0.596&#10;&#9;&#9;C14.346,125.48,14.029,124.388,13.736,123.305z" class="color c1"/>
    <path fill="#508825" d="M22.949,149.072c0.617,0.967,1.262,1.937,1.916,2.881l1.648-1.142c-0.639-0.924-1.27-1.872-1.873-2.818&#10;&#9;&#9;L22.949,149.072z" class="color c1"/>
    <path fill="#508825" d="M18.303,63.804l-1.832-0.814c-0.465,1.046-0.916,2.115-1.338,3.177l1.861,0.744&#10;&#9;&#9;C17.41,65.872,17.85,64.827,18.303,63.804z" class="color c1"/>
    <path fill="#508825" d="M143.594,177.993l0.982,1.75c1.002-0.562,2.006-1.15,2.986-1.749l-1.047-1.711&#10;&#9;&#9;C145.559,176.867,144.576,177.443,143.594,177.993z" class="color c1"/>
    <path fill="#508825" d="M21.271,57.748l-1.768-0.951c-0.541,1.007-1.072,2.039-1.576,3.068l1.801,0.883&#10;&#9;&#9;C20.223,59.742,20.742,58.732,21.271,57.748z" class="color c1"/>
    <path fill="#508825" d="M84.387,190.009c1.129,0.194,2.279,0.37,3.416,0.522l0.266-1.987c-1.111-0.149-2.236-0.321-3.342-0.511&#10;&#9;&#9;L84.387,190.009z" class="color c1"/>
    <path fill="#508825" d="M52.275,177.895c0.979,0.601,1.979,1.189,2.975,1.75l0.984-1.748c-0.973-0.548-1.953-1.124-2.908-1.711&#10;&#9;&#9;L52.275,177.895z" class="color c1"/>
    <path fill="#508825" d="M41.096,169.809c0.873,0.739,1.775,1.473,2.68,2.179l1.234-1.58c-0.883-0.691-1.766-1.408-2.621-2.131&#10;&#9;&#9;L41.096,169.809z" class="color c1"/>
    <path fill="#508825" d="M15.746,129.769l-1.891,0.668c0.383,1.084,0.793,2.176,1.217,3.246l1.863-0.74&#10;&#9;&#9;C16.521,131.897,16.121,130.829,15.746,129.769z" class="color c1"/>
    <path fill="#508825" d="M35.986,165.156c0.818,0.802,1.662,1.602,2.51,2.375l1.352-1.482c-0.83-0.757-1.654-1.538-2.455-2.323&#10;&#9;&#9;L35.986,165.156z" class="color c1"/>
    <path fill="#508825" d="M12.229,116.717l-1.973,0.373c0.215,1.126,0.453,2.265,0.709,3.383l1.955-0.448&#10;&#9;&#9;C12.67,118.931,12.436,117.818,12.229,116.717z" class="color c1"/>
    <path fill="#508825" d="M11.225,110.032l-1.994,0.223c0.127,1.142,0.279,2.294,0.449,3.427l1.982-0.298&#10;&#9;&#9;C11.496,112.277,11.35,111.149,11.225,110.032z" class="color c1"/>
    <path fill="#508825" d="M58.287,181.279c1.018,0.523,2.059,1.034,3.098,1.52l0.848-1.818c-1.014-0.474-2.033-0.973-3.027-1.484&#10;&#9;&#9;L58.287,181.279z" class="color c1"/>
    <path fill="#508825" d="M10.727,103.291l-2.006,0.073c0.041,1.146,0.105,2.306,0.189,3.451l2.002-0.148&#10;&#9;&#9;C10.828,105.548,10.766,104.412,10.727,103.291z" class="color c1"/>
    <path fill="#508825" d="M26.889,154.758c0.691,0.92,1.406,1.837,2.127,2.727l1.557-1.263c-0.705-0.87-1.404-1.768-2.08-2.667&#10;&#9;&#9;L26.889,154.758z" class="color c1"/>
    <path fill="#508825" d="M19.449,143.101c0.543,1.012,1.113,2.028,1.693,3.019l1.73-1.014c-0.568-0.969-1.125-1.963-1.656-2.953&#10;&#9;&#9;L19.449,143.101z" class="color c1"/>
    <path fill="#508825" d="M46.535,174.064c0.928,0.672,1.881,1.334,2.834,1.97l1.113-1.668c-0.932-0.623-1.865-1.27-2.773-1.927&#10;&#9;&#9;L46.535,174.064z" class="color c1"/>
    <path fill="#508825" d="M18.246,136.067l-1.834,0.81c0.463,1.05,0.955,2.107,1.459,3.141l1.803-0.879&#10;&#9;&#9;C19.18,138.128,18.699,137.094,18.246,136.067z" class="color c1"/>
    <path fill="#508825" d="M11.244,89.79L9.25,89.563c-0.129,1.139-0.238,2.297-0.326,3.44l2.002,0.151&#10;&#9;&#9;C11.01,92.037,11.117,90.905,11.244,89.79z" class="color c1"/>
    <path fill="#508825" d="M37.441,36.227l-1.404-1.432c-0.818,0.803-1.631,1.633-2.42,2.466l1.457,1.378&#10;&#9;&#9;C35.844,37.824,36.643,37.012,37.441,36.227z" class="color c1"/>
    <path fill="#508825" d="M137.566,181.074l0.844,1.819c1.041-0.483,2.09-0.994,3.113-1.517l-0.912-1.787&#10;&#9;&#9;C139.609,180.103,138.584,180.602,137.566,181.074z" class="color c1"/>
    <path fill="#508825" d="M32.801,41.138l-1.51-1.322c-0.756,0.861-1.504,1.749-2.229,2.64l1.557,1.265&#10;&#9;&#9;C31.328,42.85,32.061,41.98,32.801,41.138z" class="color c1"/>
    <path fill="#508825" d="M185.242,126.805l1.914,0.601c0.344-1.093,0.67-2.209,0.973-3.317l-1.936-0.527&#10;&#9;&#9;C185.898,124.645,185.578,125.736,185.242,126.805z" class="color c1"/>
    <path fill="#508825" d="M131.316,183.69l0.703,1.879c1.076-0.404,2.16-0.833,3.223-1.278l-0.775-1.85&#10;&#9;&#9;C133.43,182.876,132.369,183.296,131.316,183.69z" class="color c1"/>
    <path fill="#508825" d="M124.891,185.819l0.559,1.927c1.102-0.318,2.211-0.663,3.301-1.024l-0.631-1.903&#10;&#9;&#9;C127.055,185.172,125.967,185.508,124.891,185.819z" class="color c1"/>
    <path fill="#508825" d="M28.541,46.382l-1.604-1.205c-0.689,0.917-1.371,1.859-2.021,2.798l1.646,1.144&#10;&#9;&#9;C27.201,48.201,27.865,47.279,28.541,46.382z" class="color c1"/>
    <path fill="#508825" d="M59.311,20.45l-0.914-1.785c-1.021,0.524-2.049,1.075-3.051,1.637l0.982,1.749&#10;&#9;&#9;C57.309,21.501,58.311,20.962,59.311,20.45z" class="color c1"/>
    <path fill="#508825" d="M65.453,17.592l-0.777-1.849c-1.061,0.445-2.125,0.917-3.166,1.401l0.844,1.819&#10;&#9;&#9;C63.373,18.488,64.416,18.027,65.453,17.592z" class="color c1"/>
    <path fill="#508825" d="M31.244,160.129c0.754,0.862,1.535,1.723,2.324,2.558l1.459-1.377c-0.771-0.817-1.537-1.659-2.275-2.502&#10;&#9;&#9;L31.244,160.129z" class="color c1"/>
    <path fill="#508825" d="M47.775,27.514l-1.172-1.626c-0.932,0.671-1.863,1.37-2.768,2.077l1.234,1.581&#10;&#9;&#9;C45.955,28.854,46.865,28.17,47.775,27.514z" class="color c1"/>
    <path fill="#508825" d="M53.408,23.764l-1.047-1.71c-0.979,0.599-1.959,1.226-2.916,1.862l1.111,1.67&#10;&#9;&#9;C51.492,24.962,52.451,24.35,53.408,23.764z" class="color c1"/>
    <path fill="#508825" d="M42.445,31.677l-1.293-1.534c-0.879,0.74-1.754,1.506-2.602,2.278l1.35,1.484&#10;&#9;&#9;C40.73,33.149,41.586,32.4,42.445,31.677z" class="color c1"/>
    <path fill="#508825" d="M91.236,190.923c1.141,0.109,2.299,0.197,3.445,0.263l0.115-2.003c-1.121-0.064-2.256-0.15-3.371-0.256&#10;&#9;&#9;L91.236,190.923z" class="color c1"/>
    <path fill="#508825" d="M24.689,51.929L23,50.848c-0.619,0.966-1.225,1.956-1.805,2.942l1.729,1.016&#10;&#9;&#9;C23.492,53.841,24.086,52.874,24.689,51.929z" class="color c1"/>
    <path fill="#508825" d="M98.176,189.314l-0.039,2.006c0.619,0.013,1.24,0.019,1.863,0.019c0.531,0,1.063-0.004,1.592-0.014&#10;&#9;&#9;l-0.033-2.005C100.432,189.339,99.301,189.337,98.176,189.314z" class="color c1"/>
    <path fill="#508825" d="M111.668,188.578l0.26,1.989c1.137-0.149,2.287-0.321,3.418-0.512l-0.336-1.978&#10;&#9;&#9;C113.904,188.265,112.781,188.433,111.668,188.578z" class="color c1"/>
    <path fill="#508825" d="M104.938,189.199l0.109,2.003c1.145-0.063,2.305-0.148,3.445-0.253l-0.186-1.997&#10;&#9;&#9;C107.191,189.055,106.059,189.139,104.938,189.199z" class="color c1"/>
    <path fill="#508825" d="M118.332,187.451l0.41,1.963c1.123-0.234,2.258-0.493,3.369-0.77l-0.484-1.946&#10;&#9;&#9;C120.539,186.968,119.432,187.222,118.332,187.451z" class="color c1"/>
  </g></g><g transform="translate(155,154)translate(94.5,23.5)rotate(0)translate(-94.5,-23.5)" opacity="1"><path transform="translate(6,0)rotate(0)" d="M24.97 33.30C25.54 23.61 25.65 12.63 24.93 3.74L22.34 3.97C23.03 12.75 22.91 23.84 22.34 33.15ZM20.41 23.01L20.41 20.92L4.90 20.92L4.90 3.97L2.28 3.97L2.28 33.15L4.90 33.15L4.90 23.01ZM54.68 33.15C54.64 28.25 54.42 18.98 52.25 2.56C41.65 9.48 32.19 22.44 28.08 33L30.48 33.95C30.59 33.65 32.11 29.66 35.23 24.41L48.03 24.41L48.03 22.32L36.56 22.32C39.71 17.42 44.19 11.72 50.20 6.97C51.53 18.03 52.06 26.96 52.06 33.15ZM80.14 13.85C80.14 5.18 71.44 3.36 65.09 3.36C63.46 3.36 60.76 3.51 58.10 3.97L58.10 33.15L60.72 33.15L60.72 5.72C61.67 5.60 63.38 5.45 65.32 5.45C74.44 5.45 77.52 9.40 77.52 13.81C77.52 21.79 67.60 23.88 62.43 24.45L76.68 34.06L78.13 32.16L68.29 25.48C72.31 24.41 80.14 21.52 80.14 13.85ZM106.06 3.97L103.44 3.82C103.44 4.54 102.98 20.76 86.94 31.14C86.30 27.11 85.08 15.22 85.08 3.97L82.46 3.97C82.19 15.94 84.70 34.14 84.85 35.01C98.80 27.76 105.53 14.80 106.06 3.97ZM130.61 33.15L130.61 31.10L111.72 31.10L111.72 15.75L124.75 15.75L124.75 13.62L111.72 13.62L111.72 6.06L121.71 6.06L121.71 3.97L109.10 3.97L109.10 33.15ZM153.98 25.93C153.98 20.92 149.15 18.18 144.40 15.63C140.90 13.77 137.64 12.21 137.64 10.09C137.64 7.31 141.17 5.45 146.26 5.45C147.78 5.45 149.23 5.60 150.67 5.83L150.94 3.74C149.49 3.51 148.01 3.36 146.30 3.36C140.90 3.28 135.05 5.34 135.01 10.16C135.01 13.58 138.40 15.41 142.58 17.69C146.87 20.00 151.35 22.25 151.35 25.97C151.35 30.80 145.65 31.71 142.04 31.71C139.38 31.71 136.04 31.18 133.08 29.66L132.13 31.63C135.17 33.11 138.62 33.76 142.01 33.76C146.76 33.76 153.98 32.28 153.98 25.93ZM175.98 6.06L175.98 3.97L154.74 3.97L154.74 6.06L164.27 6.06C164.84 11.49 164.92 24.07 164.43 33.15L167.05 33.27C167.62 23.42 167.43 11.30 166.90 6.06Z" fill="#508825"/></g><g transform="translate(680,72)translate(40.5,22.5)rotate(0)translate(-40.5,-22.5) scale(0.6450585330891137,0.6450585330891137)" opacity="1"><defs class="defs"/><path fill="#508825" d="M124.254,65.414c-20.278-7.361-41.585-10.898-62.854-10.64c0.219-3.116,0.786-6.337,1.796-9.628h0.121&#10;&#9;c0-0.098-0.014-0.201-0.018-0.299c1.063-3.377,2.568-6.814,4.514-10.266c1.195,0.443,2.447,0.715,3.711,0.715&#10;&#9;c4.105,0,8.209-2.463,12.313-6.979C92.046,20.11,95.329,2.872,95.329,2.05c0.409-0.409,0-1.231-0.41-1.642&#10;&#9;C94.509-0.003,94.099,0,93.278,0c-0.821,0.41-18.061,3.283-26.27,11.492c-10.26,10.26-6.564,17.237-3.283,20.521&#10;&#9;c0.162,0.159,0.359,0.282,0.529,0.435c-0.803,1.515-1.56,3.024-2.229,4.518c-1.151-3.745-3.065-7.438-5.586-11.026&#10;&#9;c1.267-1.807,1.9-3.612,1.539-5.418c-0.408-2.873-2.461-5.746-6.156-8.619c-6.563-4.926-19.288-5.746-19.698-5.746&#10;&#9;c-0.82,0-1.232,0.41-1.644,0.82c-0.408,0.822-0.408,1.232-0.408,2.053c0,0.41,3.691,12.313,10.259,17.647&#10;&#9;c3.285,2.463,6.157,3.693,9.03,3.693c1.509,0,3-0.521,4.32-1.449c3.723,5.012,5.381,10.294,5.504,15.589&#10;&#9;c-1.056,3.518-1.677,6.968-1.895,10.361C38.286,55.542,19.367,59.248,1.301,66c-1.035,0.388-1.56,1.539-1.173,2.574&#10;&#9;c0.301,0.803,1.063,1.301,1.874,1.301c0.231,0,0.469-0.041,0.7-0.129c15.419-5.764,31.474-9.254,47.666-10.486&#10;&#9;c2.292-0.052,16.917-0.572,18.624-0.414c18.271,0.566,36.474,4.003,53.896,10.328c1.041,0.377,2.188-0.159,2.563-1.197&#10;&#9;S125.292,65.791,124.254,65.414z" class="color c1"/></g><g transform="translate(419,21)translate(32,37)rotate(0)translate(-32,-37) scale(1.5238233234845746,1.5238233234845746)" opacity="1"><defs class="defs"/><path transform="translate(0,0)" d="M5,21h1v-3c0,-2.76142 -2.23858,-5 -5,-5h-1v3c0,2.76142 2.23858,5 5,5zM5,30h1v-3c0,-2.76142 -2.23858,-5 -5,-5h-1v3c0,2.76142 2.23858,5 5,5zM6,36c0,-2.76142 -2.23858,-5 -5,-5h-1v3c0,2.76142 2.23858,5 5,5h1zM9,18v3h1c2.76142,0 5,-2.23858 5,-5v-3h-1c-2.76142,0 -5,2.23858 -5,5zM9,27v3h1c2.76142,0 5,-2.23858 5,-5v-3h-1c-2.76142,0 -5,2.23858 -5,5zM9,36v3h1c2.76142,0 5,-2.23858 5,-5v-3h-1c-2.76142,0 -5,2.23858 -5,5zM6,46.5c0,0.82843 0.67157,1.5 1.5,1.5c0.82843,0 1.5,-0.67157 1.5,-1.5v-5.5h-3zM1.5,11c0.82843,0 1.5,-0.67157 1.5,-1.5v-4c0,-0.82843 -0.67157,-1.5 -1.5,-1.5c-0.82843,0 -1.5,0.67157 -1.5,1.5v4c0,0.82843 0.67157,1.5 1.5,1.5zM13.5,4c-0.82843,0 -1.5,0.67157 -1.5,1.5v4c0,0.82843 0.67157,1.5 1.5,1.5c0.82843,0 1.5,-0.67157 1.5,-1.5v-4c0,-0.82843 -0.67157,-1.5 -1.5,-1.5zM7.5,14c0.82843,0 1.5,-0.67157 1.5,-1.5v-11c0,-0.82843 -0.67157,-1.5 -1.5,-1.5c-0.82843,0 -1.5,0.67157 -1.5,1.5v11c0,0.82843 0.67157,1.5 1.5,1.5zM28.27759,21.22144l0.96588,0.25878l0.77649,-2.8977c0.71467,-2.66733 -0.86821,-5.40901 -3.53552,-6.12378l-0.96595,-0.25874l-0.77649,2.89778c-0.34322,1.2809 -0.16353,2.64567 0.49952,3.79409c0.66305,1.14841 1.75516,1.98639 3.03607,2.32957zM25.94818,29.91479l0.96594,0.25879l0.77643,-2.8977c0.34323,-1.28091 0.16356,-2.6457 -0.49948,-3.79413c-0.66305,-1.14843 -1.75515,-1.98643 -3.03607,-2.32965l-0.96594,-0.25879l-0.7764,2.89769c-0.34324,1.2809 -0.16357,2.6457 0.49947,3.79413c0.66304,1.14844 1.75514,1.98644 3.03605,2.32966zM24.58472,38.86694l0.77649,-2.8977c0.34323,-1.2809 0.16356,-2.6457 -0.49948,-3.79413c-0.66304,-1.14843 -1.75514,-1.98644 -3.03605,-2.32965l-0.96594,-0.25879l-0.77643,2.89771c-0.34323,1.2809 -0.16356,2.64569 0.49948,3.79412c0.66304,1.14843 1.75514,1.98643 3.03605,2.32965zM32.91772,19.35889l-0.77642,2.898l0.96588,0.25878c2.66736,0.71464 5.40903,-0.86832 6.12372,-3.53567l0.77649,-2.8977l-0.96595,-0.25879c-1.28088,-0.34326 -2.64565,-0.16362 -3.79408,0.4994c-1.14843,0.66302 -1.98643,1.75509 -2.32964,3.03598zM30.58838,28.05225l-0.77649,2.89782l0.96594,0.25891c2.66735,0.71462 5.40899,-0.86832 6.12372,-3.53564l0.77643,-2.89771l-0.96588,-0.25878c-1.28088,-0.34326 -2.64566,-0.16362 -3.79409,0.4994c-1.14843,0.66302 -1.98643,1.75511 -2.32963,3.036zM28.259,36.74561l-0.77643,2.89782l0.96589,0.25879c1.28089,0.34324 2.64568,0.16357 3.7941,-0.49947c1.14842,-0.66304 1.98641,-1.75514 2.32961,-3.03605l0.77649,-2.89771l-0.96594,-0.25891c-2.66732,-0.71467 -5.40898,0.86823 -6.12372,3.53553zM22.64362,46.11133c-0.21445,0.80019 0.26038,1.62273 1.06058,1.83718c0.80019,0.21445 1.62273,-0.26038 1.83718,-1.06057l1.42352,-5.31274l-2.89782,-0.77637zM27.485,10.65637c0.38427,0.10297 0.79371,0.04907 1.13825,-0.14984c0.34453,-0.19891 0.59593,-0.52655 0.69889,-0.91083l1.03528,-3.86377c0.14192,-0.51873 -0.00471,-1.07373 -0.38433,-1.45467c-0.37961,-0.38093 -0.93411,-0.52949 -1.45333,-0.38937c-0.51921,0.14012 -0.92368,0.54748 -1.06011,1.06768l-1.03528,3.86364c-0.2144,0.8002 0.26044,1.6227 1.06062,1.83716zM40.88788,7.00073c-0.80018,-0.21445 -1.6227,0.26037 -1.83716,1.06055l-1.03528,3.86377c-0.21442,0.80021 0.26046,1.62274 1.06067,1.83716c0.80021,0.21442 1.62274,-0.26046 1.83716,-1.06067l1.03522,-3.86365c0.10298,-0.38427 0.04909,-0.79371 -0.14981,-1.13824c-0.1989,-0.34453 -0.52653,-0.59594 -0.9108,-0.69892zM32.50409,15.10706c0.38428,0.10298 0.79372,0.04908 1.13826,-0.14984c0.34454,-0.19892 0.59594,-0.52655 0.6989,-0.91083l2.847,-10.62525c0.14192,-0.51873 -0.00471,-1.07373 -0.38433,-1.45467c-0.37961,-0.38093 -0.93411,-0.52949 -1.45333,-0.38937c-0.51921,0.14012 -0.92368,0.54748 -1.06011,1.06768l-2.847,10.62512c-0.21438,0.80019 0.26044,1.62267 1.0606,1.83716z" fill="#508825" class="fill c1"/></g><g transform="translate(-143,121)translate(55.5,45.5)rotate(0)translate(-55.5,-45.5) scale(1.246042971644103,1.246042971644103)" opacity="1"><defs class="defs"/><path transform="translate(-4.4599999999999955,-12.622999999999998)" d="M11.397,69.293v16.334h42.459v-16.334zM24.458,82.123h-9.792v-9.14h9.792zM34.261,82.123h-6.535v-9.14h6.535zM47.321,82.123h-9.803v-9.14h9.803zM50.725,67.25v-17.947h3.132v17.947zM36.504,62.365v-2.614h12.098v2.614zM36.504,57.601v-2.565h12.098v2.565zM36.504,67.25v-2.667h12.098v2.667zM31.012,67.25v-13.566h3.23v13.566zM28.806,67.293v-2.763h-11.975v2.72zM11.397,67.25v-6.873h3.268v6.873zM77.023,35.129l-6.949,-22.506l-5.941,22.506h-3.268h-3.078l-0.943,-1.427h-44.845l-7.539,7.962h56.405v6.549h3.268v29.705h-2.155l-4.853,7.71h29.102l-4.853,-7.71h-4.17v-29.706h3.267v-6.549h3.269v6.536h9.802v-13.07zM16.397,38.766h-5.301l2.172,-2.171h5.297zM25.542,38.766h-5.301l2.172,-2.171h5.298zM34.696,38.766h-5.301l2.173,-2.171h5.298zM43.84,38.766h-5.301l2.173,-2.171h5.298zM47.797,38.766l2.174,-2.171h5.317l1.437,2.171zM70.259,21.438l1.652,5.35l-4.083,3.849zM64.128,44.928v-6.528h9.812v6.528zM73.936,48.695l-6.535,5.55v-5.55zM73.551,77.917h-6.151v-1.058l6.535,-6.154zM73.936,66.191l-6.535,6.15v-4.951l6.535,-6.15zM73.936,57.145l-6.536,6.148v-4.949l6.535,-6.152v4.953zM67.409,35.129l5.483,-5.169l1.594,5.169z" fill="#508825" class="fill c1"/></g><g transform="translate(201,220)translate(55.5,51)rotate(0)translate(-55.5,-51) scale(1.5818735271589999,1.5818735271589999)" opacity="1"><defs class="defs"/><path transform="translate(0.08477050983124701,-2.863004630690104)" d="M17.486,64.162c5.054,-6.722 15.765,-20.102 20.838,-26.817l5.178,-6.862l-3.121,-2.593l-3.078,-2.644l-5.9,6.252c-5.773,6.125 -17.174,18.922 -22.956,25.028c-1.456,1.536 -2.181,3.494 -2.047,5.507c0.226,3.384 2.649,5.409 5.998,5.068c2.007,-0.204 3.817,-1.247 5.088,-2.939zM69.601,24.758c-0.767,-0.65 -1.543,-1.3 -2.319,-1.949c-0.865,-0.725 -1.73,-1.46 -2.585,-2.186c-0.295,-0.254 -0.578,-0.342 -0.962,-0.313c-0.201,0.015 -2.009,0.199 -2.511,0.246l-0.155,0.012c-1.811,0.138 -2.746,-0.665 -2.924,-2.519l-0.054,-0.465c-0.05,-0.41 -0.089,-0.812 -0.102,-1.225c-0.014,-0.542 -0.238,-0.948 -0.75,-1.397c-2.621,-2.285 -5.715,-4.994 -8.796,-7.777c-1.304,-1.18 -2.79,-2.097 -4.545,-2.792c-3.881,-1.564 -7.542,-1.92 -11.197,-1.109c-1.806,0.398 -3.493,1.069 -5.099,2.032c-0.877,0.526 -0.526,1.89 0.496,1.904c1.963,0.027 3.745,0.371 5.44,1.032c3.935,1.541 6.377,4.87 6.526,8.897c0.067,1.853 -0.317,3.695 -1.139,5.468c1.16,0.988 2.341,2.002 3.503,3c0.993,0.845 1.958,1.682 2.854,2.451c1.028,-1.118 1.269,-1.338 1.47,-1.482c1.259,-0.868 2.752,-1.074 4.015,-0.553c0.409,0.171 0.814,0.426 1.198,0.755c1.738,1.45 2.187,3.486 1.226,5.482c0.402,0.328 0.804,0.657 1.206,0.985c1.61,1.331 3.287,2.703 4.957,3.984c0.244,0.184 0.445,0.288 0.573,0.279c0.064,-0.005 0.263,-0.057 0.641,-0.398l7.294,-8.502l1.916,-2.39c0.385,-0.492 0.492,-0.904 -0.177,-1.47zM4.38,19.902c0.033,-0.022 0.062,-0.05 0.085,-0.085c0.006,-0.009 0.011,-0.017 0.017,-0.026c0.025,-0.033 0.046,-0.067 0.067,-0.102c0.042,-0.064 0.083,-0.127 0.125,-0.191c0.179,-0.273 0.357,-0.546 0.536,-0.818c0.243,-0.371 0.486,-0.741 0.728,-1.112c0.262,-0.4 0.524,-0.8 0.786,-1.2c0.236,-0.361 0.472,-0.721 0.708,-1.082c0.165,-0.253 0.331,-0.506 0.496,-0.759c0.097,-0.149 0.197,-0.301 0.198,-0.485c0.002,-0.215 -0.102,-0.428 -0.285,-0.54c-0.114,-0.07 -0.229,-0.139 -0.342,-0.212l-3.537,-2.272c-1.444,-0.928 -2.697,-1.732 -2.837,-1.822l-0.696,-0.446c-0.202,-0.129 -0.466,0.015 -0.469,0.256l-0.011,0.831c-0.003,0.218 -0.01,0.425 -0.017,0.623c-0.015,0.434 -0.03,0.844 0.003,1.266c0.273,3.446 1.25,6.137 2.902,8c0.037,0.042 0.074,0.083 0.113,0.126c0.005,0.005 0.01,0.008 0.015,0.013c0.007,0.009 0.012,0.018 0.019,0.027c0.346,0.39 0.96,0.406 1.371,0.036c0.01,-0.008 0.016,-0.018 0.025,-0.026zM29.227,29.444c-1.894,2.014 -4.426,4.775 -7.128,7.736c-2.293,-3.031 -4.845,-5.822 -8.145,-7.766c-2.153,-1.256 -4.546,-1.954 -7.038,-2.103c-1.206,-0.06 -2.831,-0.05 -3.499,-1.276c-0.479,-0.847 0.608,-1.745 1.037,-2.393c1.097,-1.655 2.173,-3.3 3.26,-4.945c1.555,-2.353 3.12,-4.706 4.676,-7.058c-0.62,-0.439 -2.753,-1.804 -3.421,-2.243c-1.725,-1.107 -3.509,-2.273 -5.014,-3.659l-0.07,-0.07c-0.229,-0.259 -0.299,-0.628 -0.18,-0.947c0.199,-0.518 0.718,-0.788 2.233,-1.176c0.798,-0.209 1.645,-0.379 1.844,-0.409c1.625,-0.189 3.19,-0.219 4.666,-0.06c2.423,0.269 5.822,1.146 8.285,3.918l0.1,0.13c1.376,1.595 2.333,3.559 2.712,5.643c0.369,1.984 -0.339,3.968 -0.14,5.972c0.159,1.645 0.678,3.21 1.465,4.656c1.186,2.193 2.861,4.028 4.556,5.842zM54.559,60.917c-0.668,3.808 -3.778,6.261 -7.736,6.081c-2.363,-0.11 -4.386,-1.176 -5.692,-3.011c-1.127,-1.575 -2.243,-3.15 -3.37,-4.735c-2.014,-2.841 -4.028,-5.673 -6.041,-8.514c2.891,-3.689 5.762,-7.357 7.936,-10.199c4.357,4.785 8.723,9.561 13.149,14.286c1.534,1.646 2.162,3.809 1.754,6.092z" fill="#508825" class="fill c1"/></g><g transform="translate(-151,226)translate(55.5,48)rotate(0)translate(-55.5,-48) scale(1.2333350440248232,1.2333350440248232)" opacity="1"><defs class="defs"/><path transform="translate(-5.000500000000003,-10.818)" d="M94.788,86.815l-43.421,-75.208c-0.282,-0.488 -0.803,-0.789 -1.367,-0.789c-0.564,0 -1.085,0.301 -1.367,0.789l-43.421,75.208c-0.282,0.488 -0.282,1.09 0,1.579c0.282,0.488 0.803,0.789 1.367,0.789h86.843c0.564,0 1.085,-0.301 1.367,-0.789c0.282,-0.489 0.282,-1.091 -0.001,-1.579zM14.781,82.869l35.219,-61.002l35.219,61.002zM48.191,69.779l-4.188,-6.773l0.323,-0.307l1.377,1.178c-0.292,0.585 -0.101,1.308 0.463,1.668c0.216,0.138 0.458,0.204 0.696,0.204c0.267,0 0.531,-0.083 0.751,-0.239l8.607,7.361c0.107,0.099 0.242,0.148 0.377,0.148c0.149,0 0.298,-0.06 0.407,-0.178c0.208,-0.225 0.195,-0.576 -0.03,-0.785l-8.686,-7.429l4.342,-6.796c0.281,-0.44 0.262,-0.986 -0.004,-1.399c-0.06,-0.093 -0.132,-0.179 -0.217,-0.256l-5.039,-5.947c-0.233,-0.346 -0.628,-0.572 -1.074,-0.572h-0.013l-6.619,0.067c-0.397,0.004 -0.757,0.236 -0.925,0.595l-2.049,4.388l-0.539,-0.461c-0.225,-0.209 -0.576,-0.195 -0.785,0.03c-0.208,0.225 -0.195,0.576 0.03,0.785l0.807,0.691l-0.215,0.46c-0.288,0.618 -0.082,1.376 0.51,1.713c0.205,0.117 0.427,0.172 0.644,0.172c0.436,0 0.854,-0.222 1.095,-0.605l0.676,0.578l-3.057,3.291c-0.388,0.358 -0.638,0.865 -0.656,1.435l-0.231,7.4l-2.01,8.709c-0.253,1.096 0.43,2.189 1.526,2.442c0.154,0.035 0.308,0.053 0.46,0.053c0.927,0 1.765,-0.637 1.982,-1.579l2.1,-9.098l0.205,-6.585l1.206,0.847l3.462,5.599l-3.786,7.9c-0.486,1.014 -0.058,2.23 0.956,2.716c0.284,0.136 0.583,0.2 0.878,0.2c0.759,0 1.487,-0.426 1.837,-1.157l4.466,-9.317c0.178,-0.369 0.155,-0.8 -0.06,-1.147zM45.136,61.931l4.58,-4.349l-3.415,5.345zM38.735,56.456l1.938,-4.15l3.63,-0.037l-4.632,4.987zM49.457,50.439c0,-2.05229 1.66371,-3.716 3.716,-3.716c2.05229,0 3.716,1.66371 3.716,3.716c0,2.05229 -1.66371,3.716 -3.716,3.716c-2.05229,0 -3.716,-1.66371 -3.716,-3.716zM77.284,79.023c-1.241,-1.813 -7.203,-13.089 -8.736,-14.667c-1.533,-1.579 -2.9,-1.8 -3.832,-1.421c-0.866,0.352 -1.884,0.948 -2.614,1.94c-1.098,1.492 -2.618,5.961 -3.832,7.97c-0.251,0.269 -0.478,0.565 -0.694,0.87l-0.071,0.051c-0.914,0.55 -3.465,1.029 -4.482,2.076c-0.698,0.719 -1.327,1.698 -1.654,2.242l-0.158,0.216c-0.706,0.97 -1.507,2.069 -3.394,2.824l0.034,0.274h28.607c0.194,0.001 2.345,-0.155 0.826,-2.375z" fill="#508825" class="fill c1"/></g><g transform="translate(159,176)translate(9,12)rotate(0)translate(-9,-12)" opacity="1"><path transform="translate(6,0)rotate(0)" d="" fill="#000000"/></g><g transform="translate(388,93) scale(1,1) rotate(0 55.5 16.5)"><linearGradient class="linearGradient" x1="0%" y1="0%" x2="0%" y2="100%" gradientTransform="translate(0.5,0.5) rotate(0) translate(-0.5,-0.5)">
		<stop id="stop1" offset="0%" class="linearGradientColor1" stop-color="#05a"/>
		<stop id="stop2" offset="100%" class="linearGradientColor2" stop-color="#0a5"/>
	</linearGradient><radialGradient class="radialGradient" cx="50%" cy="50%" r="50%" fx="50%" fy="50%">
		<stop offset="0%" class="radialGradientColor1" stop-color="#05a"/>
		<stop offset="100%" class="radialGradientColor2" stop-color="#0a5"/>
	</radialGradient><clipPath id="clip8" class="clipPath">
		<rect fill="none" class="element" stroke="#dddddd" stroke-width="1" stroke-miterlimit="10" x="0" y="0" width="111" height="33" rx="6.6000000000000005" ry="6.6000000000000005"/>
	</clipPath><rect class="fill-color element" fill="#508825" opacity="1" x="1" y="1" width="109" height="31" rx="6.6000000000000005" ry="6.6000000000000005" clip-path="url(#clip8)"/><rect class="stroke-color element" fill="none" stroke="#dddddd" stroke-width="0" stroke-miterlimit="10" x="0" y="0" width="111" height="33" rx="6.6000000000000005" ry="6.6000000000000005" clip-path="url(#clip8)"/></g><g transform="translate(612,180)translate(28.5,29)rotate(0)translate(-28.5,-29) scale(0.5815986868820178,0.5815986868820178)" opacity="1"><defs class="defs"/><path transform="translate(0.00033168194767311393,0)" d="M15.248,97.137l-1.357,-13.664c0,-1.257 1.602,-0.144 3.623,-0.144v0c2.005,0 3.626,-1.113 3.626,0.144v0l-1.136,13.326c0,2.91 -4.756,1.725 -4.756,0.338zM9.431,52.654c-9.954,-4.499 -9.144,-11.582 -9.144,-11.582c-1.256,2.5 1.416,24.309 11.79,24.309c4.642,0 8.542,-7.702 -2.646,-12.727zM9.431,37.244c-9.954,-4.485 -9.144,-11.568 -9.144,-11.568c-1.256,2.494 1.416,24.309 11.79,24.309c4.642,0 8.542,-7.702 -2.646,-12.741zM9.431,22.297c-9.954,-4.466 -9.144,-11.562 -9.144,-11.562c-1.256,2.5 1.416,24.296 11.79,24.296c4.642,0 8.542,-7.682 -2.646,-12.734zM23.233,65.381c10.374,0 13.033,-21.809 11.79,-24.309c0,0 0.804,7.083 -9.156,11.582c-11.176,5.025 -7.289,12.727 -2.634,12.727zM9.431,68.434c-9.954,-4.498 -9.144,-11.581 -9.144,-11.581c-1.256,2.5 1.416,24.309 11.79,24.309c4.642,0 8.542,-7.702 -2.646,-12.728zM23.233,81.162c10.374,0 13.033,-21.809 11.79,-24.309c0,0 0.804,7.083 -9.156,11.581c-11.176,5.026 -7.289,12.728 -2.634,12.728zM23.233,49.985c10.374,0 13.033,-21.815 11.79,-24.309c0,0 0.804,7.083 -9.156,11.568c-11.176,5.039 -7.289,12.741 -2.634,12.741zM23.233,35.031c10.374,0 13.033,-21.796 11.79,-24.296c0,0 0.804,7.096 -9.156,11.562c-11.176,5.052 -7.289,12.734 -2.634,12.734zM18.376,23.462c11.005,0 -0.605,-23.462 -0.605,-23.462c-1.4,2.207 -10.397,23.462 0.605,23.462zM48.131,98.967l6.641,-11.621v0c0.527,-1.119 -1.406,-0.813 -3.22,-1.646v0c-1.842,-0.854 -2.825,-2.539 -3.35,-1.4l-4.527,12.955c-0.583,1.269 3.222,4.342 4.456,1.712zM57.134,54.47c-7.118,-8.274 -3.411,-14.355 -3.411,-14.355c-2.19,1.738 -8.948,22.649 0.449,27.017c4.212,1.96 10.996,-3.379 2.962,-12.662zM63.632,40.486c-7.122,-8.255 -3.418,-14.335 -3.418,-14.335c-2.194,1.732 -8.962,22.636 0.442,27.018c4.226,1.953 10.996,-3.373 2.976,-12.683zM69.927,26.945c-7.142,-8.242 -3.418,-14.348 -3.418,-14.348c-2.188,1.738 -8.951,22.636 0.456,27.017c4.212,1.947 10.989,-3.372 2.962,-12.669zM64.296,71.845c9.406,4.355 21.015,-14.283 20.923,-17.089c0,0 -2.246,6.765 -13.177,6.641c-12.252,-0.13 -11.965,8.477 -7.746,10.448zM50.494,68.78c-7.132,-8.269 -3.424,-14.342 -3.424,-14.342c-2.188,1.731 -8.948,22.636 0.456,26.99c4.224,1.96 10.989,-3.365 2.968,-12.648zM57.648,86.142c9.4,4.375 21.009,-14.283 20.931,-17.076c0,0 -2.253,6.764 -13.177,6.641c-12.258,-0.131 -11.965,8.482 -7.754,10.435zM70.793,57.869c9.4,4.368 21.001,-14.296 20.923,-17.083c0,0 -2.252,6.758 -13.176,6.641c-12.266,-0.131 -11.966,8.495 -7.747,10.442zM77.088,44.301c9.407,4.381 20.995,-14.27 20.917,-17.069c0,0 -2.259,6.783 -13.17,6.64c-12.259,-0.13 -11.959,8.483 -7.747,10.429zM77.55,31.763c9.974,4.635 9.336,-21.536 9.336,-21.536c-2.2,1.433 -19.31,16.9 -9.336,21.536z" fill="#508825" class="fill c1"/></g><g transform="translate(392,98) scale(1,1) rotate(0 51 13)"><linearGradient class="linearGradient" x1="0%" y1="0%" x2="0%" y2="100%" gradientTransform="translate(0.5,0.5) rotate(0) translate(-0.5,-0.5)">
		<stop id="stop1" offset="0%" class="linearGradientColor1" stop-color="#05a"/>
		<stop id="stop2" offset="100%" class="linearGradientColor2" stop-color="#0a5"/>
	</linearGradient><radialGradient class="radialGradient" cx="50%" cy="50%" r="50%" fx="50%" fy="50%">
		<stop offset="0%" class="radialGradientColor1" stop-color="#05a"/>
		<stop offset="100%" class="radialGradientColor2" stop-color="#0a5"/>
	</radialGradient><clipPath id="clip10" class="clipPath">
		<rect fill="none" class="element" stroke="#dddddd" stroke-width="1" stroke-miterlimit="10" x="0" y="0" width="102" height="26" rx="5.2" ry="5.2"/>
	</clipPath><rect class="fill-color element" fill="#d8e4a6" opacity="1" x="1" y="1" width="100" height="24" rx="5.2" ry="5.2" clip-path="url(#clip10)"/><rect class="stroke-color element" fill="none" stroke="#dddddd" stroke-width="0" stroke-miterlimit="10" x="0" y="0" width="102" height="26" rx="5.2" ry="5.2" clip-path="url(#clip10)"/></g><g transform="translate(294,282.55)translate(102,102.45)rotate(0)translate(-102,-102.45) scale(1.02,1.02)" opacity="1"><defs class="defs"/><path fill="#508825" d="M197.581,97.5H2.419C1.083,97.5,0,98.619,0,100s1.083,2.5,2.419,2.5h195.162c1.336,0,2.419-1.119,2.419-2.5&#10;&#9;S198.917,97.5,197.581,97.5z" class="color c1"/></g><g transform="translate(112,282.55)translate(102,102.45)rotate(0)translate(-102,-102.45) scale(1.02,1.02)" opacity="1"><defs class="defs"/><path fill="#508825" d="M197.581,97.5H2.419C1.083,97.5,0,98.619,0,100s1.083,2.5,2.419,2.5h195.162c1.336,0,2.419-1.119,2.419-2.5&#10;&#9;S198.917,97.5,197.581,97.5z" class="color c1"/></g><g transform="translate(-18,282.55)translate(102,102.45)rotate(0)translate(-102,-102.45) scale(1.02,1.02)" opacity="1"><defs class="defs"/><path fill="#508825" d="M197.581,97.5H2.419C1.083,97.5,0,98.619,0,100s1.083,2.5,2.419,2.5h195.162c1.336,0,2.419-1.119,2.419-2.5&#10;&#9;S198.917,97.5,197.581,97.5z" class="color c1"/></g><g transform="translate(-47,31.35000000000001)translate(94,94.14999999999999)rotate(0)translate(-94,-94.14999999999999) scale(0.94,0.94)" opacity="1"><defs class="defs"/><path fill="#508825" d="M197.581,97.5H2.419C1.083,97.5,0,98.619,0,100s1.083,2.5,2.419,2.5h195.162c1.336,0,2.419-1.119,2.419-2.5&#10;&#9;S198.917,97.5,197.581,97.5z" class="color c1"/></g><g transform="translate(357,31.35000000000001)translate(94,94.14999999999999)rotate(0)translate(-94,-94.14999999999999) scale(0.94,0.94)" opacity="1"><defs class="defs"/><path fill="#508825" d="M197.581,97.5H2.419C1.083,97.5,0,98.619,0,100s1.083,2.5,2.419,2.5h195.162c1.336,0,2.419-1.119,2.419-2.5&#10;&#9;S198.917,97.5,197.581,97.5z" class="color c1"/></g></svg>